<svg width="90" height="19" viewBox="0 0 90 19" fill="none" xmlns="http://www.w3.org/2000/svg">
<path d="M9.35156 0.9375V18H5.54297V0.9375H9.35156ZM14.543 0.9375V3.90234H0.457031V0.9375H14.543ZM20.2969 9.23438V12.0938H13.4766V9.23438H20.2969ZM34.5703 15.0469V18H25.957V15.0469H34.5703ZM27.2578 0.9375V18H23.4375V0.9375H27.2578ZM40.5117 0.9375V18H36.7031V0.9375H40.5117ZM57.3398 8.98828V15.8672C57.0586 16.1875 56.6289 16.5312 56.0508 16.8984C55.4805 17.2656 54.75 17.582 53.8594 17.8477C52.9688 18.1055 51.9062 18.2344 50.6719 18.2344C49.5547 18.2344 48.5391 18.0547 47.625 17.6953C46.7109 17.3281 45.9258 16.793 45.2695 16.0898C44.6133 15.3789 44.1055 14.5117 43.7461 13.4883C43.3945 12.4648 43.2188 11.293 43.2188 9.97266V8.96484C43.2188 7.64453 43.3945 6.47266 43.7461 5.44922C44.0977 4.42578 44.5938 3.5625 45.2344 2.85938C45.875 2.14844 46.6367 1.60937 47.5195 1.24219C48.4023 0.875 49.3789 0.691406 50.4492 0.691406C51.9727 0.691406 53.2188 0.9375 54.1875 1.42969C55.1562 1.91406 55.8906 2.58594 56.3906 3.44531C56.8984 4.30469 57.2109 5.29297 57.3281 6.41016H53.6484C53.5703 5.83984 53.4141 5.34766 53.1797 4.93359C52.9531 4.51953 52.6289 4.20312 52.207 3.98438C51.7852 3.75781 51.2383 3.64453 50.5664 3.64453C50.0273 3.64453 49.5391 3.75781 49.1016 3.98438C48.6719 4.20312 48.3086 4.53516 48.0117 4.98047C47.7148 5.42578 47.4883 5.98047 47.332 6.64453C47.1758 7.30078 47.0977 8.06641 47.0977 8.94141V9.97266C47.0977 10.8477 47.1758 11.6172 47.332 12.2812C47.4961 12.9453 47.7344 13.5 48.0469 13.9453C48.3594 14.3828 48.7539 14.7148 49.2305 14.9414C49.7148 15.168 50.2773 15.2812 50.918 15.2812C51.418 15.2812 51.8398 15.2422 52.1836 15.1641C52.5273 15.0781 52.8086 14.9727 53.0273 14.8477C53.2461 14.7148 53.4102 14.5938 53.5195 14.4844V11.6484H50.4844V8.98828H57.3398ZM71.4023 7.80469V10.7578H62.5664V7.80469H71.4023ZM63.7734 0.9375V18H59.9531V0.9375H63.7734ZM74.0391 0.9375V18H70.2305V0.9375H74.0391ZM84.4688 0.9375V18H80.6602V0.9375H84.4688ZM89.6602 0.9375V3.90234H75.5742V0.9375H89.6602Z" fill="white"/>
</svg>
