<svg width="29" height="29" viewBox="0 0 29 29" fill="none" xmlns="http://www.w3.org/2000/svg">
<g clip-path="url(#clip0_81_38)">
<path d="M20.3183 0.468506H7.74416C3.47403 0.468506 0 3.9427 0 8.21283V20.787C0 25.0573 3.47403 28.5313 7.74416 28.5313H20.3183C24.5888 28.5313 28.0628 25.0571 28.0628 20.787V8.21283C28.063 3.9427 24.5888 0.468506 20.3183 0.468506ZM25.5731 20.787C25.5731 23.6844 23.2159 26.0415 20.3185 26.0415H7.74416C4.84695 26.0416 2.48987 23.6844 2.48987 20.787V8.21283C2.48987 5.31562 4.84695 2.95838 7.74416 2.95838H20.3183C23.2157 2.95838 25.573 5.31562 25.573 8.21283V20.787H25.5731Z" fill="white"/>
<path d="M14.0314 7.26929C10.0442 7.26929 6.80035 10.5131 6.80035 14.5004C6.80035 18.4875 10.0442 21.7311 14.0314 21.7311C18.0187 21.7311 21.2625 18.4875 21.2625 14.5004C21.2625 10.5131 18.0187 7.26929 14.0314 7.26929ZM14.0314 19.2411C11.4172 19.2411 9.29022 17.1144 9.29022 14.5002C9.29022 11.8858 11.4171 9.75899 14.0314 9.75899C16.6458 9.75899 18.7726 11.8858 18.7726 14.5002C18.7726 17.1144 16.6456 19.2411 14.0314 19.2411Z" fill="white"/>
<path d="M21.5657 5.15796C21.086 5.15796 20.6147 5.35217 20.276 5.69245C19.9355 6.03107 19.7398 6.50249 19.7398 6.98386C19.7398 7.46374 19.9357 7.93499 20.276 8.27528C20.6146 8.6139 21.086 8.80977 21.5657 8.80977C22.0471 8.80977 22.5168 8.6139 22.8571 8.27528C23.1974 7.93499 23.3916 7.46358 23.3916 6.98386C23.3916 6.50249 23.1974 6.03107 22.8571 5.69245C22.5185 5.35217 22.0471 5.15796 21.5657 5.15796Z" fill="white"/>
</g>
<defs>
<clipPath id="clip0_81_38">
<rect width="28.063" height="28.063" fill="white" transform="translate(0 0.468506)"/>
</clipPath>
</defs>
</svg>
