<svg width="34" height="29" viewBox="0 0 34 29" fill="none" xmlns="http://www.w3.org/2000/svg">
<path d="M30.477 7.59115C30.491 7.88815 30.498 8.18615 30.498 8.48815C30.498 17.6752 23.506 28.2672 10.719 28.2672C6.79101 28.2672 3.13901 27.1182 0.0620117 25.1442C0.608012 25.2072 1.16101 25.2392 1.72001 25.2392C4.98001 25.2392 7.97401 24.1322 10.352 22.2652C7.31301 22.2072 4.74501 20.2002 3.86101 17.4372C4.28501 17.5192 4.71901 17.5622 5.16901 17.5622C5.80401 17.5622 6.41701 17.4782 6.99901 17.3182C3.82201 16.6792 1.42301 13.8702 1.42301 10.5032C1.42301 10.4742 1.42301 10.4452 1.42301 10.4162C2.36201 10.9372 3.43301 11.2492 4.57301 11.2852C2.70901 10.0402 1.48201 7.91015 1.48201 5.49815C1.48201 4.22415 1.82501 3.03115 2.42201 2.00315C5.84901 6.20915 10.974 8.97615 16.749 9.26615C16.632 8.75715 16.569 8.22815 16.569 7.68215C16.569 3.84415 19.681 0.733154 23.522 0.733154C25.52 0.733154 27.327 1.57715 28.592 2.92515C30.174 2.61415 31.664 2.03515 33.008 1.23915C32.487 2.86315 31.387 4.22515 29.951 5.08315C31.357 4.91715 32.697 4.54315 33.942 3.99115C33.012 5.38615 31.834 6.61015 30.477 7.59115Z" fill="white"/>
</svg>
